<svg xmlns="http://www.w3.org/2000/svg" viewBox="0 0 600 320" role="img" aria-labelledby="title desc"><title id="title">正多角形 カウント・ラボ</title><desc id="desc">頂点を選んで数える。対角線・三角形・組合せ</desc><defs><linearGradient id="bg" x2="1" y2="1"><stop stop-color="#15283a"/><stop offset="1" stop-color="#0c1726"/></linearGradient><filter id="glow" x="-100%" y="-100%" width="300%" height="300%"><feGaussianBlur stdDeviation="3" result="blur"/><feMerge><feMergeNode in="blur"/><feMergeNode in="SourceGraphic"/></feMerge></filter></defs><rect width="600" height="320" fill="url(#bg)"/><g font-family="system-ui,sans-serif"><text x="28" y="38" fill="#e5f1fa" font-size="21" text-anchor="start">頂点を選んで数える</text><polygon points="300.00,72.00 376.62,108.90 395.54,191.81 342.52,258.29 257.48,258.29 204.46,191.81 223.38,108.90" stroke="#6ce2e4" fill="none" stroke-width="3"/><line x1="300.0" y1="72.0" x2="395.5429353938187" y2="191.8070515277188" stroke="#ba9cff" stroke-width="1.5"/><line x1="300.0" y1="72.0" x2="342.5206064335207" y2="258.2949490544371" stroke="#ba9cff" stroke-width="1.5"/><line x1="300.0" y1="72.0" x2="257.4793935664793" y2="258.2949490544371" stroke="#ba9cff" stroke-width="1.5"/><line x1="300.0" y1="72.0" x2="204.4570646061813" y2="191.8070515277188" stroke="#ba9cff" stroke-width="1.5"/><circle cx="300.0" cy="72.0" r="5" fill="#ffcf78" filter="url(#glow)"/><circle cx="376.6194852818669" cy="108.89799941784412" r="5" fill="#ffcf78" filter="url(#glow)"/><circle cx="395.5429353938187" cy="191.8070515277188" r="5" fill="#ffcf78" filter="url(#glow)"/><circle cx="342.5206064335207" cy="258.2949490544371" r="5" fill="#ffcf78" filter="url(#glow)"/><circle cx="257.4793935664793" cy="258.2949490544371" r="5" fill="#ffcf78" filter="url(#glow)"/><circle cx="204.4570646061813" cy="191.8070515277188" r="5" fill="#ffcf78" filter="url(#glow)"/><circle cx="223.38051471813307" cy="108.89799941784413" r="5" fill="#ffcf78" filter="url(#glow)"/><line x1="28" y1="279" x2="572" y2="279" stroke="#30475d" stroke-width="1"/><text x="300" y="304" fill="#809db5" font-size="17" text-anchor="middle">対角線・三角形・組合せ</text></g></svg>
