<svg xmlns="http://www.w3.org/2000/svg" viewBox="0 0 600 320" role="img" aria-labelledby="title desc"><title id="title">正多角形の面積</title><desc id="desc">中心から三角形に分ける。正多角形の面積を三角比で求める</desc><defs><linearGradient id="bg" x2="1" y2="1"><stop stop-color="#15283a"/><stop offset="1" stop-color="#0c1726"/></linearGradient><filter id="glow" x="-100%" y="-100%" width="300%" height="300%"><feGaussianBlur stdDeviation="3" result="blur"/><feMerge><feMergeNode in="blur"/><feMergeNode in="SourceGraphic"/></feMerge></filter></defs><rect width="600" height="320" fill="url(#bg)"/><g font-family="system-ui,sans-serif"><text x="28" y="38" fill="#e5f1fa" font-size="21" text-anchor="start">中心から三角形に分ける</text><polygon points="300.00,72.00 384.87,121.00 384.87,219.00 300.00,268.00 215.13,219.00 215.13,121.00" stroke="#6ce2e4" fill="#6ce2e4" fill-opacity="0.063" stroke-width="3"/><line x1="300" y1="170" x2="300.0" y2="72.0" stroke="#ba9cff" stroke-width="1.5"/><line x1="300" y1="170" x2="384.87048957087495" y2="121.0" stroke="#ba9cff" stroke-width="1.5"/><line x1="300" y1="170" x2="384.870489570875" y2="219.0" stroke="#ba9cff" stroke-width="1.5"/><line x1="300" y1="170" x2="300.0" y2="268.0" stroke="#ba9cff" stroke-width="1.5"/><line x1="300" y1="170" x2="215.12951042912505" y2="219.00000000000003" stroke="#ba9cff" stroke-width="1.5"/><line x1="300" y1="170" x2="215.12951042912502" y2="120.99999999999999" stroke="#ba9cff" stroke-width="1.5"/><polygon points="300.00,170.00 300.00,72.00 384.87,121.00" stroke="#ffcf78" fill="#ffcf78" fill-opacity="0.165" stroke-width="2"/><circle cx="300" cy="170" r="6" fill="#ffcf78" filter="url(#glow)"/><line x1="28" y1="279" x2="572" y2="279" stroke="#30475d" stroke-width="1"/><text x="300" y="304" fill="#809db5" font-size="17" text-anchor="middle">正多角形の面積を三角比で求める</text></g></svg>
